<?xml version="1.0" standalone="no"?><!DOCTYPE svg PUBLIC "-//W3C//DTD SVG 1.1//EN" "http://www.w3.org/Graphics/SVG/1.1/DTD/svg11.dtd"><svg t="1554260809566" class="icon" style="" viewBox="0 0 1024 1024" version="1.1" xmlns="http://www.w3.org/2000/svg" p-id="7158" xmlns:xlink="http://www.w3.org/1999/xlink" width="200" height="200"><defs><style type="text/css"></style></defs><path d="M892.16 864.32c-27.84 1.92-27.84-12.48-27.84-33.6 0.96-147.84 0-295.68 0-443.52 0-41.28-23.04-64.32-64.32-65.28h-34.56c-54.72 0-75.84 21.12-75.84 75.84v441.6c0 7.68 2.88 17.28-6.72 22.08-21.12 12.48-46.08-0.96-46.08-25.92V589.76c0-46.08-21.12-67.2-68.16-68.16h-34.56c-49.92 0-72 22.08-72 72 0 81.6-0.96 164.16 0 245.76 0 22.08-10.56 24-27.84 24-18.24 0-25.92-3.84-25.92-24 0.96-48.96 0.96-96.96 0-145.92-0.96-33.6-24-56.64-57.6-57.6-16.32-0.96-31.68 0-48 0-47.04 0-69.12 22.08-69.12 70.08v136.32c0 15.36-5.76 22.08-21.12 21.12-20.16-0.96-41.28-0.96-61.44 0-17.28 0.96-28.8 10.56-29.76 28.8 0 17.28 10.56 27.84 26.88 31.68 7.68 1.92 16.32 0.96 24.96 0.96h696c7.68 0 15.36 0 23.04-0.96 17.28-2.88 27.84-13.44 27.84-30.72 0.96-18.24-11.52-29.76-27.84-28.8z m-571.2-0.96c-13.44 0-25.92 0.96-24.96-19.2 0.96-43.2 0.96-86.4 0-129.6 0-18.24 10.56-19.2 24-18.24 12.48 0.96 28.8-4.8 28.8 18.24v63.36c0 22.08-0.96 44.16 0 65.28 0 23.04-14.4 20.16-27.84 20.16z m254.4-19.2c0 24-16.32 18.24-29.76 19.2-15.36 0.96-24-2.88-23.04-21.12 0.96-40.32 0-79.68 0-120 0-39.36 0.96-78.72 0-118.08-0.96-20.16 11.52-21.12 25.92-21.12 14.4 0 26.88-0.96 26.88 20.16v240.96z m200.64 20.16c-20.16 0-25.92-5.76-25.92-25.92 0.96-142.08 0.96-284.16 0-427.2 0-19.2 3.84-28.8 25.92-27.84 21.12 0 27.84 6.72 26.88 27.84-0.96 71.04 0 142.08 0 213.12 0 71.04-0.96 142.08 0 213.12 0.96 21.12-6.72 26.88-26.88 26.88zM235.52 378.56c-28.8 0-57.6-2.88-86.4 1.92-16.32 2.88-26.88 12.48-26.88 28.8 0 17.28 10.56 27.84 27.84 30.72 8.64 0.96 16.32 1.92 24.96 1.92 22.08 0 44.16 0.96 66.24 0 15.36 0 22.08 6.72 21.12 22.08-0.96 16.32 0 31.68 0 48 0.96 27.84 11.52 42.24 30.72 42.24 20.16 0 30.72-13.44 31.68-41.28 0.96-14.4 0.96-28.8 0-43.2-1.92-21.12 6.72-27.84 27.84-27.84 28.8 0.96 57.6 2.88 86.4-1.92 16.32-2.88 26.88-13.44 26.88-29.76 0-16.32-9.6-26.88-25.92-29.76-7.68-1.92-16.32-1.92-24.96-1.92h-68.16c-14.4 0-21.12-4.8-21.12-20.16-0.96-26.88 1.92-29.76 28.8-29.76 24.96 0 49.92 0 74.88-0.96 19.2-0.96 34.56-8.64 36.48-29.76 1.92-17.28-13.44-30.72-36.48-32.64-21.12-0.96-42.24 0-63.36-0.96-5.76 0-12.48 2.88-17.28-9.6 24-23.04 49.92-46.08 73.92-71.04 16.32-17.28 18.24-34.56 5.76-48-14.4-15.36-32.64-14.4-50.88 1.92-18.24 17.28-35.52 35.52-53.76 52.8-34.56 33.6-26.88 33.6-60.48 0.96-19.2-18.24-37.44-38.4-56.64-55.68-16.32-15.36-33.6-14.4-47.04-0.96-12.48 12.48-11.52 30.72 2.88 47.04 6.72 7.68 13.44 14.4 21.12 21.12 19.2 18.24 38.4 36.48 57.6 53.76-1.92 2.88-2.88 4.8-4.8 7.68-24.96 0-49.92-0.96-74.88 0-24.96 0.96-40.32 13.44-40.32 31.68s14.4 30.72 40.32 31.68c24 0.96 48.96 0.96 72.96 0 18.24-0.96 27.84 3.84 27.84 24.96s-8.64 25.92-26.88 25.92z" p-id="7159" fill="#ffffff"></path></svg>