<?xml version="1.0" standalone="no"?><!DOCTYPE svg PUBLIC "-//W3C//DTD SVG 1.1//EN" "http://www.w3.org/Graphics/SVG/1.1/DTD/svg11.dtd"><svg t="1554260430009" class="icon" style="" viewBox="0 0 1024 1024" version="1.1" xmlns="http://www.w3.org/2000/svg" p-id="7012" xmlns:xlink="http://www.w3.org/1999/xlink" width="200" height="200"><defs><style type="text/css"></style></defs><path d="M656.44853487 958.72146172c-48.56093614 0-97.46901123-3.72853388-145.60566592 0.78427792-97.12187227 9.11562189-179.84389042-18.03838886-254.55598945-81.0377499C177.78196162 812.28009042 117.68828487 733.53088848 79.54152911 638.67185088c-11.63559638-28.92827812-0.51428055-59.37368379 21.67692274-80.39489855 22.79548301-21.59978115 49.69235303-39.99816562 84.44485811-24.06832733 37.83818759 17.3569667 69.23501191 43.14813398 96.99330234 73.99210606 32.43824209 36.05106271 63.70649648 73.22068565 104.97750643 100.15612733 50.81091328 33.15823506 110.64744932 31.19111191 166.6011674 43.713842 22.37120156 5.01423487 20.39122178-13.03701065 10.85131845-25.0583168-25.82973808-32.52824121-20.4812209-62.76793449 4.82137911-91.33621699 25.16117344-28.41399756 55.28515342-26.67830098 89.47194961-16.25126308 26.48544519 8.06134658 57.29084737 35.52392549 80.5491835 16.58554541 38.41675312-31.30682519 63.17935929-75.95922919 72.77069003-126.97585489 10.64560606-56.72513935 8.88419531-113.01313974 0.19285577-169.9311331-11.71273799-76.73065049-109.96602714-185.32097754-188.11094942-207.12647111-75.21352295-20.98264395-149.82276622-22.71834141-224.50915107 0.77142132-89.74194698 28.22114268-189.26808047 136.85004052-191.82662578 238.18901219-0.70713545 28.6711374-12.43273095 56.27514375-2.91854181 86.27055381 4.98852071 15.74984003-11.21131493 28.6325666-24.68546455 30.62540391-14.66985146 2.18569219-21.36835458-12.02130703-23.91404236-26.58830186-13.61557617-77.97778066 7.08421378-149.50134052 45.64239342-215.29067344C271.59958145 128.09417277 377.61850567 63.02483281 512.44999559 62.00912832c135.42291211-1.01570362 269.25155508 84.53485722 330.82378683 232.3905003 51.68519033 124.07016971 21.32978379 234.79476153-46.92809531 339.93940869-15.51841435 23.90118574-9.56561748 30.43254815 11.28845742 39.04674697 34.6367918 14.33556914 68.83644463 29.7254127 103.44752226 44.12526679 23.90118574 9.95132724 35.44678301 25.27688672 34.17393868 53.16374708-2.15997803 47.44237588-1.76141074 95.11617833-0.2057124 142.62283828 1.06713193 32.73395361-11.28845654 46.3623873-44.60097569 45.8352501-81.32060391-1.28570098-162.66692109-0.42428144-244.01323915-0.42428145z m1.38855761-44.4081208c70.32785801 0 140.75857266-1.88998066 210.98357403 0.83570537 33.47966075 1.28570098 42.55671094-10.16989717 39.43245761-41.52814981-2.51997451-25.32831417-2.77711435-51.36376464 0.07714159-76.61493721 3.41996572-30.2139791-10.6198919-43.90669776-36.42391581-53.61374179-58.89797403-22.16548915-116.97309932-46.50381386-175.80678837-68.86215879-21.39406875-8.13848906-44.06098183-12.8184416-65.96933116-19.6712288-16.31554892-5.09137734-29.44255869 0.92570449-38.58389472 13.01129648-9.79704316 12.95986815-2.21140635 25.30260087 6.698504 36.17963262 12.29130352 15.00413379 25.32831417 29.45541533 36.66819902 45.14097129 18.05124551 24.94260441 8.97419442 47.80237237-21.48406786 47.31380508-126.29443359-2.04426474-246.08321807-21.67692276-331.20949747-131.01295606-20.03122529-25.7140248-44.69097569-48.21379629-69.4278668-69.62072256-12.34273184-10.67132021-28.97970644-18.03838886-44.90954472-22.48691484-31.92396153-8.90990948-53.87088252 21.08550059-41.93957461 58.93654482 35.48535469 112.6274291 114.94169121 189.16522383 210.72643417 250.40317412 42.8652791 27.42400722 91.92763916 33.92965547 142.89283653 32.09110312 59.36082627-2.13426387 118.83736582-0.50142305 178.27533457-0.50142304z" fill="#ffffff" p-id="7013"></path><path d="M507.07576426 592.23232198c-16.45697636-5.43851632-24.51832297-18.47552695-21.70263692-35.99963526 6.59564737-41.01387012-7.58563769-58.43512178-50.33520351-51.74947441-20.49407754 3.21425332-42.55671094-6.29993584-42.58242598-27.98971612-0.01285664-22.5897706 23.45119102-21.08550059 41.91386132-24.08118486 17.62696404-2.84139932 47.05666523 17.98696055 50.77234161-20.57122003 1.7871249-18.56552607-2.41711875-31.02397119-25.14831589-29.05684804a229.24053193 229.24053193 0 0 1-43.61098626-0.51428057c-12.90844073-1.36284346-24.20975479-9.12847852-23.61833172-22.96262372 0.48856641-11.57131143 10.78703349-18.38552783 22.46120067-20.42979259 4.73138086-0.82284873 9.80990068 0.23142656 14.50270986-0.73285048 13.22986553-2.69997276 32.86252354 8.57562715 38.54532305-8.78133955 5.10423398-15.62127012-14.27128417-23.46404766-23.65690254-33.89108466-13.69271865-15.23555947-28.83827901-29.12113301-43.01956405-43.93241104-8.48562802-8.87133867-18.6169544-18.68123935-3.75424718-30.07255255 11.77702383-9.0384794 24.99403183-12.04702031 34.61107763 2.9185418 15.4541294 24.06832733 41.84957549 36.41105918 59.61796612 57.84369961 13.85985936 16.71411622 25.97116551 12.38130263 39.12388946-1.73569746 17.38268086-18.68123935 36.2182043-35.99963526 53.96088075-54.38516219 11.71273799-12.11130614 23.46404766-18.08981631 36.93819727-3.2785383 14.42556826 15.87840997-2.76425772 24.94260441-9.97704229 32.91395186-17.85839063 19.72265713-38.4810381 36.87391143-57.84369873 55.20801181-5.33566055 5.05280567-11.0698875 10.83846182-8.88419531 18.84838008 3.0856834 11.39131318 13.35843633 7.8299209 21.30406963 8.52419883 20.51979171 1.79998154 53.22803115-7.75277842 53.30517362 21.38121211 0.07714247 32.42538545-33.82679972 21.8954918-55.19515516 23.07833701-17.61410742 0.98999033-35.06107325-0.68142129-35.33106973 24.96831856-0.25713984 25.19974423 16.13555068 25.54688409 34.4310794 25.81688056 22.11406172 0.33428231 55.92800391-5.65708534 55.83800478 23.42547686-0.10285578 28.60685244-32.70823943 30.59968974-57.79227041 27.84828867-25.44402743-2.78997187-35.67820957 6.89135888-32.77252529 32.73395449a113.78456016 113.78456016 0 0 1-1.96712315 36.21820343c-1.92855146 8.87133867-5.78565527 19.31123232-20.13408106 18.43695615" fill="#ffffff" p-id="7014"></path></svg>