<?xml version="1.0" standalone="no"?><!DOCTYPE svg PUBLIC "-//W3C//DTD SVG 1.1//EN" "http://www.w3.org/Graphics/SVG/1.1/DTD/svg11.dtd"><svg t="1554261446503" class="icon" style="" viewBox="0 0 1024 1024" version="1.1" xmlns="http://www.w3.org/2000/svg" p-id="7104" xmlns:xlink="http://www.w3.org/1999/xlink" width="200" height="200"><defs><style type="text/css"></style></defs><path d="M606.425 401.84h220.26v31.47h-220.26v-31.47zM606.395 590.69h220.29v31.47h-220.29v-31.47zM606.395 496.25h157.11v31.47h-157.11v-31.47z" fill="#ffffff" p-id="7105"></path><path d="M574.925 213.02V118.61h-125.88v94.41H102.875v692.37h818.25V213.02H574.955z m314.73 31.47v62.94h-314.7V244.49h314.7zM480.515 150.08h62.94v157.35h-62.94V150.08zM134.345 244.49h314.7v62.94H134.345V244.49z m0 629.43V338.93h755.31v534.99H134.345z" fill="#ffffff" p-id="7106"></path><path d="M566.765 734.06c-22.71-9.45-76.35-28.08-109.56-37.89-2.82-0.9-3.24-1.05-3.24-12.84 0-9.72 3.99-19.5 7.89-27.81a144 144 0 0 0 11.04-37.77c5.04-5.88 11.88-17.4 16.35-39.39 3.84-19.35 2.07-26.43-0.51-33.06l-0.78-2.07c-0.99-4.56 0.36-28.14 3.69-46.47 2.28-12.54-0.57-39.27-17.88-61.38-10.92-13.98-31.8-31.11-70.02-33.51l-20.97 0.03c-37.53 2.37-58.47 19.53-69.36 33.48-17.31 22.11-20.19 48.84-17.91 61.38 3.36 18.33 4.68 41.91 3.72 46.38-0.18 0.78-0.48 1.47-0.78 2.16-2.55 6.63-4.38 13.68-0.48 33.06 4.38 21.99 11.25 33.51 16.32 39.39 1.74 13.59 6.78 28.74 11.04 37.77 3.09 6.6 4.59 15.57 4.59 28.26 0 11.79-0.45 11.94-3.09 12.78-34.32 10.14-89.01 29.88-109.38 38.79-16.17 6.93-20.1 19.38-20.1 30.6v13.59h31.47v-13.59a11.7 11.7 0 0 1 0.06-1.2 9.21 9.21 0 0 1 1.17-0.54c19.35-8.49 72.99-27.81 106.29-37.65 25.05-7.95 25.05-31.47 25.05-42.78 0-17.43-2.4-30.66-7.56-41.67a109.5 109.5 0 0 1-8.31-28.38l-1.23-9.39-6.18-7.17c-0.96-1.08-5.76-7.32-9.27-24.99-2.4-11.91-1.53-14.13-1.05-15.42 0.84-2.04 1.53-4.05 2.19-6.9 2.76-12.72-0.9-44.49-3.48-58.65-0.87-4.65 0.36-21.9 11.7-36.42 9.96-12.75 25.32-19.95 45.66-21.39l18.87-0.03c20.73 1.47 36.27 8.67 46.23 21.42 11.37 14.52 12.57 31.77 11.73 36.39-2.58 14.16-6.24 45.9-3.51 58.71l0.27 1.23 0.33 1.2c0.42 1.38 0.9 2.7 1.56 4.47 0.51 1.32 1.38 3.51-0.99 15.39-3.57 17.7-8.4 24-9.36 25.08l-6.12 7.11-1.23 9.3a111 111 0 0 1-8.31 28.47c-5.1 10.8-10.92 25.23-10.92 41.25 0 11.31 0 34.86 25.83 43.02 31.44 9.27 84.15 27.48 106.05 36.63 3.33 1.41 4.53 3.15 4.86 3.81v12.72h31.47v-13.59c0-11.22-7.77-24.93-23.91-31.89z" fill="#ffffff" p-id="7107"></path></svg>