<?xml version="1.0" standalone="no"?><!DOCTYPE svg PUBLIC "-//W3C//DTD SVG 1.1//EN" "http://www.w3.org/Graphics/SVG/1.1/DTD/svg11.dtd"><svg t="1554260924582" class="icon" style="" viewBox="0 0 1024 1024" version="1.1" xmlns="http://www.w3.org/2000/svg" p-id="7315" xmlns:xlink="http://www.w3.org/1999/xlink" width="200" height="200"><defs><style type="text/css"></style></defs><path d="M794.95758962 907.24414088H229.00474367a93.60351537 93.60351537 0 0 1-93.64118362-93.33984375V211.48939747A93.60351537 93.60351537 0 0 1 229.00474367 118.14955372h565.95284594a93.56584789 93.56584789 0 0 1 93.64118286 93.33984375v602.41489966a93.56584789 93.56584789 0 0 1-93.64118286 93.33984375zM229.00474367 154.23493337c-31.60295752 0-57.29213159 25.68917407-57.29213236 57.2544641v602.41489966c0 31.56529003 25.68917407 57.2544641 57.29213237 57.2544641h565.95284594c31.60295752 0 57.29213159-25.68917407 57.29213158-57.2544641V211.48939747c0-31.56529003-25.68917407-57.2544641-57.29213158-57.2544641H229.00474367z" p-id="7316" fill="#ffffff"></path><path d="M323.32393969 530.72070338h377.31445313v-36.04771216H323.32393969v36.04771216z m0-168.18498902h377.31445313v-36.08537964H323.32393969v36.08537963z m0 336.40764476h377.31445313v-36.08537887H323.32393969v36.08537887z" p-id="7317" fill="#ffffff"></path></svg>