<?xml version="1.0" standalone="no"?><!DOCTYPE svg PUBLIC "-//W3C//DTD SVG 1.1//EN" "http://www.w3.org/Graphics/SVG/1.1/DTD/svg11.dtd"><svg t="1554261591650" class="icon" style="" viewBox="0 0 1024 1024" version="1.1" xmlns="http://www.w3.org/2000/svg" p-id="7287" xmlns:xlink="http://www.w3.org/1999/xlink" width="200" height="200"><defs><style type="text/css"></style></defs><path d="M883.52 116.48h-153.6c-13.254375 0-24 10.745625-24 24s10.745625 24 24 24h95.65875l-218.559375 218.5603125L433.428125 209.8878125c-9.376875-9.3515625-24.555-9.3421875-33.9196875 0.0215625l-276 276c-9.373125 9.3721875-9.373125 24.568125 0 33.9403125 4.685625 4.685625 10.828125 7.029375 16.970625 7.029375s12.2840625-2.34375 16.970625-7.029375l259.051875-259.0509375 173.5884375 173.1534375c9.375 9.3515625 24.555 9.343125 33.9196875-0.0215625l235.509375-235.509375v95.65875c0 13.254375 10.745625 24 24 24s24-10.745625 24-24v-153.6c0-13.254375-10.745625-24-24-24z m-86.4 282.24c-13.254375 0-24 10.745625-24 24v460.8c0 13.254375 10.745625 24 24 24s24-10.745625 24-24v-460.8c0-13.254375-10.745625-24-24-24z m-190.08 172.8c-13.254375 0-24 10.745625-24 24v288c0 13.254375 10.745625 24 24 24s24-10.745625 24-24v-288c0-13.254375-10.745625-24-24-24z m-190.08-96c-13.254375 0-24 10.745625-24 24v384c0 13.254375 10.745625 24 24 24s24-10.745625 24-24v-384c0-13.254375-10.745625-24-24-24z m-190.08 211.2c-13.254375 0-24 10.745625-24 24v172.8c0 13.254375 10.745625 24 24 24s24-10.745625 24-24v-172.8c0-13.254375-10.745625-24-24-24z" p-id="7288" fill="#ffffff"></path></svg>