<?xml version="1.0" standalone="no"?><!DOCTYPE svg PUBLIC "-//W3C//DTD SVG 1.1//EN" "http://www.w3.org/Graphics/SVG/1.1/DTD/svg11.dtd"><svg t="1547196628098" class="icon" style="" viewBox="0 0 1024 1024" version="1.1" xmlns="http://www.w3.org/2000/svg" p-id="12532" xmlns:xlink="http://www.w3.org/1999/xlink" width="200" height="200"><defs><style type="text/css"></style></defs><path d="M118.784 74.752c-22.528 11.264-45.568 38.912-51.712 61.952-3.584 12.8-5.632 121.344-5.632 306.176 0 268.288 1.024 288.256 9.728 307.2 11.264 24.064 32.768 45.568 53.248 53.248 8.192 3.072 35.328 5.632 60.928 5.632h46.08l-3.584 33.28c-3.072 31.744-2.56 34.304 14.848 62.464 10.24 16.384 18.432 32.256 18.432 35.84 0 4.608 10.752 11.776 18.432 11.776 1.024 0 3.584-7.168 6.144-16.384 3.072-12.8 9.728-19.456 30.72-30.208 30.72-15.872 47.616-28.16 92.16-68.096l32.256-28.672H567.296l20.992 16.384c11.264 9.216 35.84 30.208 54.784 46.08 18.944 16.384 45.056 33.28 57.856 38.4 30.72 11.264 35.328 14.848 37.376 31.232 1.024 9.728 4.608 13.824 11.776 13.824 7.68 0 10.752-4.608 13.824-21.504 2.048-11.776 8.704-28.672 14.848-36.864 9.216-12.8 11.264-21.504 10.752-51.2l-1.024-35.328 55.808-2.048c53.76-1.536 56.832-2.048 75.776-17.408 10.752-8.704 24.064-23.552 29.696-33.28 9.728-16.896 10.24-26.624 10.24-319.488 0-292.864-0.512-302.592-10.24-319.488-5.632-9.728-18.944-24.576-29.696-33.28l-19.968-15.872-381.952-1.024c-343.552-1.536-384-0.512-399.36 6.656z m778.24 35.84c7.68 4.096 18.432 13.824 23.04 20.992 8.704 12.8 9.216 35.84 9.216 306.176 0 270.848-0.512 293.376-9.216 306.176-17.92 27.648-31.232 31.744-95.744 31.232h-58.88l-30.72-24.064c-68.608-52.736-185.856-90.624-220.672-71.168-6.656 3.584-12.8 3.584-18.944 0-34.816-18.432-149.504 19.968-210.432 70.656l-30.208 25.088H197.12c-45.568 0-59.904-2.048-70.656-9.216-30.208-19.456-29.184-6.656-29.184-325.12-0.512-317.44-1.024-311.808 27.648-330.24 15.872-10.752 135.168-13.312 499.712-9.728 209.92 1.536 261.12 3.584 272.384 9.216z m-417.28 593.92c6.144 18.944-118.272 147.456-168.96 173.568-24.064 12.8-30.208 14.336-41.472 8.704-25.6-11.264-23.552-53.248 3.584-89.088 25.6-33.28 67.072-58.88 132.096-81.408 58.368-19.968 71.168-22.016 74.752-11.776z m115.2 5.12c61.952 19.456 105.472 42.496 132.608 69.632 29.696 29.696 43.52 65.536 34.816 90.112-9.216 27.136-35.84 27.648-75.264 1.536-34.816-23.04-120.32-104.96-141.312-135.168-29.696-43.008-20.48-48.128 49.152-26.112z" fill="#69b5ea" p-id="12533"></path><path d="M298.496 271.36c-28.16 6.656-74.24 32.256-97.28 54.272-24.064 22.528-27.136 31.232-12.8 36.352 12.288 4.608 16.384 11.776 16.384 30.208 0 20.992 18.944 47.616 43.52 62.464 29.184 16.384 70.656 13.824 97.28-6.144 20.992-16.384 38.4-48.64 38.4-72.192 0-22.016-16.384-54.272-34.816-70.144-13.824-11.776-14.848-13.824-7.68-20.992 16.384-16.384-4.608-23.04-43.008-13.824z m49.152 75.264c5.632 5.12 12.288 16.384 13.824 25.6 2.56 13.312 0.512 18.944-9.728 29.184-7.68 7.68-19.456 13.312-26.624 13.312-16.896 0-38.4-21.504-38.4-38.4s20.992-38.4 37.376-38.4c7.168 0 17.408 4.096 23.552 8.704zM646.144 272.384c-7.68 7.68 1.536 19.456 16.384 19.456 9.728 0.512 9.216 1.536-5.632 14.336C619.52 337.92 609.28 384.512 629.76 424.448c19.968 39.936 56.32 56.832 100.864 47.104C777.216 460.8 803.84 429.056 803.84 384c0-13.824 2.56-22.016 7.68-23.552 34.304-13.312-53.248-78.336-116.736-87.04-11.776-1.536-26.112-3.584-32.256-4.608-5.632-1.536-13.312 0.512-16.384 3.584z m124.416 83.456c35.84 35.328-15.36 87.04-52.224 52.736-7.168-6.656-11.776-16.896-11.776-25.6 0-18.432 20.48-39.936 38.4-39.936 7.168 0 18.944 5.632 25.6 12.8zM474.624 560.128c-27.136 7.168-59.904 34.816-59.904 50.176 0 11.776 11.264 11.776 48.64-1.024s47.104-12.8 80.384 0c14.848 5.632 30.208 10.24 33.792 10.24 10.24 0 7.168-13.312-7.168-30.72-25.088-29.184-57.344-38.912-95.744-28.672z" fill="#69b5ea" p-id="12534"></path></svg>