<?xml version="1.0" standalone="no"?><!DOCTYPE svg PUBLIC "-//W3C//DTD SVG 1.1//EN" "http://www.w3.org/Graphics/SVG/1.1/DTD/svg11.dtd"><svg t="1554260650158" class="icon" style="" viewBox="0 0 1024 1024" version="1.1" xmlns="http://www.w3.org/2000/svg" p-id="7012" xmlns:xlink="http://www.w3.org/1999/xlink" width="200" height="200"><defs><style type="text/css"></style></defs><path d="M877.625 590.75c0-16.875 5.625-33.75 5.625-50.625 0-157.5-95.625-292.5-241.875-348.75C630.125 129.5 573.875 84.5 512 84.5c-61.875 0-118.125 45-129.375 101.25-146.25 56.25-241.875 191.25-241.875 348.75 0 16.875 0 33.75 5.625 50.625-33.75 22.5-56.25 61.875-56.25 106.875 0 73.125 61.875 135 135 135 16.875 0 33.75-5.625 50.625-11.25C343.25 872 427.625 905.75 517.625 905.75c90 0 174.375-33.75 241.875-90 16.875 5.625 33.75 11.25 50.625 11.25 73.125 0 135-61.875 135-135-5.625-39.375-28.125-78.75-67.5-101.25zM512 140.75c39.375 0 73.125 28.125 78.75 73.125v5.625c0 45-33.75 78.75-78.75 78.75-45 0-78.75-33.75-78.75-78.75v-5.625c5.625-39.375 39.375-73.125 78.75-73.125z m-371.25 556.875c0-28.125 16.875-56.25 45-67.5 5.625-5.625 11.25-5.625 22.5-11.25h5.625c45-5.625 90 28.125 90 78.75 0 28.125-16.875 50.625-39.375 67.5-11.25 5.625-28.125 11.25-39.375 11.25-45 0-84.375-33.75-84.375-78.75z m562.5 90c-112.5 84.375-275.625 84.375-388.125 0 22.5-22.5 33.75-56.25 33.75-90C348.875 624.5 287 562.625 219.5 562.625h-22.5v-28.125c0-123.75 73.125-236.25 185.625-286.875 0 5.625 5.625 16.875 5.625 22.5v5.625c5.625 5.625 5.625 11.25 11.25 16.875l5.625 5.625 11.25 11.25 5.625 5.625 11.25 11.25 5.625 5.625c5.625 5.625 11.25 5.625 16.875 11.25h5.625c5.625 0 11.25 5.625 16.875 5.625H545.75c5.625 0 11.25-5.625 16.875-5.625H568.25c5.625 0 11.25-5.625 11.25-5.625l5.625-5.625 11.25-11.25 5.625-5.625 11.25-11.25 5.625-5.625c5.625-5.625 5.625-11.25 11.25-16.875 5.625-5.625 5.625-16.875 5.625-22.5 112.5 50.625 185.625 163.125 185.625 286.875v28.125c-78.75-16.875-157.5 50.625-157.5 129.375 5.625 28.125 16.875 61.875 39.375 84.375z m101.25-11.25c-11.25 0-28.125-5.625-39.375-11.25-22.5-16.875-39.375-39.375-39.375-67.5 0-56.25 61.875-95.625 112.5-67.5 28.125 11.25 45 39.375 45 67.5 0 45-39.375 78.75-78.75 78.75z" fill="#ffffff" p-id="7013"></path></svg>