<?xml version="1.0" standalone="no"?><!DOCTYPE svg PUBLIC "-//W3C//DTD SVG 1.1//EN" "http://www.w3.org/Graphics/SVG/1.1/DTD/svg11.dtd"><svg t="1554260580958" class="icon" style="" viewBox="0 0 1024 1024" version="1.1" xmlns="http://www.w3.org/2000/svg" p-id="7193" xmlns:xlink="http://www.w3.org/1999/xlink" width="200" height="200"><defs><style type="text/css"></style></defs><path d="M849.82958984 880.23425293H173.92321777c-16.39709473 0-29.66308594-13.26599122-29.66308593-29.66308594V173.84082031c0-16.39709473 13.26599122-29.66308594 29.66308594-29.66308594H849.82958984c16.39709473 0 29.66308594 13.26599122 29.66308594 29.66308594V850.65356445c0 16.31469727-13.26599122 29.58068848-29.66308594 29.58068848z m-646.24328613-59.32617188H820.16650391V203.50390625H203.58630371v617.40417481z" p-id="7194" fill="#ffffff"></path><path d="M727.22216797 363.60217285h-325.4699707c-16.39709473 0-29.66308594-13.26599122-29.66308594-29.66308593s13.26599122-29.66308594 29.66308594-29.66308594h325.4699707c16.39709473 0 29.66308594 13.26599122 29.66308594 29.66308594s-13.26599122 29.66308594-29.66308594 29.66308594zM305.42956542 303.20483398c-16.97387695 0-30.73425293 13.76037598-30.73425292 30.73425294s13.76037598 30.73425293 30.73425293 30.73425292 30.73425293-13.76037598 30.73425293-30.73425293-13.76037598-30.73425293-30.73425293-30.73425293zM727.22216797 540.50952148h-325.4699707c-16.39709473 0-29.66308594-13.26599122-29.66308594-29.66308593s13.26599122-29.66308594 29.66308594-29.66308594h325.4699707c16.39709473 0 29.66308594 13.26599122 29.66308594 29.66308594s-13.26599122 29.66308594-29.66308594 29.66308593zM305.42956542 480.11218261c-16.97387695 0-30.73425293 13.76037598-30.73425292 30.73425294 0 16.97387695 13.76037598 30.73425293 30.73425293 30.73425293s30.73425293-13.76037598 30.73425293-30.73425293c0-16.97387695-13.76037598-30.73425293-30.73425293-30.73425294zM727.22216797 718.98242188h-325.4699707c-16.39709473 0-29.66308594-13.26599122-29.66308594-29.66308594s13.26599122-29.66308594 29.66308594-29.66308594h325.4699707c16.39709473 0 29.66308594 13.26599122 29.66308594 29.66308594s-13.26599122 29.66308594-29.66308594 29.66308593zM305.42956542 658.58508301c-16.97387695 0-30.73425293 13.76037598-30.73425292 30.73425293s13.76037598 30.73425293 30.73425293 30.73425292 30.73425293-13.76037598 30.73425293-30.73425292-13.76037598-30.73425293-30.73425293-30.73425294z" p-id="7195" fill="#ffffff"></path></svg>