<?xml version="1.0" standalone="no"?><!DOCTYPE svg PUBLIC "-//W3C//DTD SVG 1.1//EN" "http://www.w3.org/Graphics/SVG/1.1/DTD/svg11.dtd"><svg t="1554259763003" class="icon" style="" viewBox="0 0 1024 1024" version="1.1" xmlns="http://www.w3.org/2000/svg" p-id="42419" xmlns:xlink="http://www.w3.org/1999/xlink" width="200" height="200"><defs><style type="text/css"></style></defs><path d="M547.815483 871.089201 249.356695 871.089201C202.453225 871.089201 164.283092 832.919068 164.283092 786.015598L164.283092 218.858241C164.283092 171.954771 202.453225 133.784638 249.356695 133.784638L759.798316 133.784638C806.701786 133.784638 844.87192 171.954771 844.87192 218.858241L844.87192 568.213951C827.266559 558.662951 808.223117 551.434055 788.156184 546.941428L788.156184 218.858241C788.156184 203.232613 775.451638 190.500373 759.798316 190.500373L249.356695 190.500373C233.731067 190.500373 220.998827 203.232613 220.998827 218.858241L220.998827 786.015598C220.998827 801.668919 233.731067 814.373465 249.356695 814.373465L525.234725 814.373465C530.135212 834.492192 537.804773 853.539843 547.815513 871.089253Z" p-id="42420" fill="#ffffff"></path><path d="M618.888514 531.560228 305.874147 531.560228C290.220826 531.560228 277.51628 518.855682 277.51628 503.20236 277.51628 487.549039 290.220826 474.844493 305.874147 474.844493L618.888514 474.844493C634.569528 474.844493 647.246382 487.549039 647.246382 503.20236 647.246382 518.855682 634.569528 531.560228 618.888514 531.560228" p-id="42421" fill="#ffffff"></path><path d="M702.090056 383.864319 305.760051 383.864319C290.106729 383.864319 277.402184 371.188573 277.402184 355.50645 277.402184 339.824329 290.106729 327.148583 305.760051 327.148583L702.090056 327.148583C717.772177 327.148583 730.447923 339.824329 730.447923 355.50645 730.447923 371.188573 717.772177 383.864319 702.090056 383.864319" p-id="42422" fill="#ffffff"></path><path d="M739.821497 541.619272C618.068036 541.619272 519.000003 640.568271 519.000003 762.214025 519.000003 883.842469 618.068036 982.809397 739.821497 982.809397 861.592286 982.809397 960.64361 883.85978 960.64361 762.214025 960.64361 640.568271 861.592286 541.619272 739.821497 541.619272L739.821497 541.619272ZM738.831676 941.849397C640.197158 941.849397 559.960003 861.695215 559.960003 763.161389 559.960003 664.641597 640.197158 584.473382 738.831676 584.473382 837.452733 584.473382 917.703936 664.62581 917.703936 763.161389 917.703936 861.695215 837.452733 941.849397 738.831676 941.849397L738.831676 941.849397Z" p-id="42423" fill="#ffffff"></path><path d="M764.098649 885.257533C758.941341 889.776823 753.119432 892.036469 746.021487 892.036469 738.923543 892.036469 733.101633 889.457815 728.582342 884.938525 723.425034 880.419234 721.165389 874.597324 721.165389 867.49938 721.165389 860.401435 723.425034 854.60611 728.582342 850.086819 733.101633 845.567528 738.923543 843.307882 746.021487 843.307882 753.119432 843.307882 759.26035 845.567528 764.098649 850.086819 768.61794 854.60611 771.196594 860.401435 771.196594 867.49938 771.196594 874.597324 768.61794 880.738243 764.098649 885.257533L764.098649 885.257533Z" p-id="42424" fill="#ffffff"></path><path d="M767.980288 661.579715 759.897856 825.869251 732.463872 825.869251 724.409088 661.579715Z" p-id="42425" fill="#ffffff"></path></svg>